<?xml version="1.0" encoding="UTF-8" standalone="no"?>
<svg
   xmlns:dc="http://purl.org/dc/elements/1.1/"
   xmlns:cc="http://creativecommons.org/ns#"
   xmlns:rdf="http://www.w3.org/1999/02/22-rdf-syntax-ns#"
   xmlns:svg="http://www.w3.org/2000/svg"
   xmlns="http://www.w3.org/2000/svg"
   xmlns:sodipodi="http://sodipodi.sourceforge.net/DTD/sodipodi-0.dtd"
   xmlns:inkscape="http://www.inkscape.org/namespaces/inkscape"
   version="1.1"
   id="Layer_1"
   x="0px"
   y="0px"
   viewBox="0.7 191.7 612 408"
   enable-background="new 0.7 191.7 612 408"
   xml:space="preserve"
   sodipodi:docname="2.svg"
   inkscape:version="0.92.2 5c3e80d, 2017-08-06"><metadata
     id="metadata1191"><rdf:RDF><cc:Work
         rdf:about=""><dc:format>image/svg+xml</dc:format><dc:type
           rdf:resource="http://purl.org/dc/dcmitype/StillImage" /><dc:title></dc:title></cc:Work></rdf:RDF></metadata><defs
     id="defs1189" /><sodipodi:namedview
     pagecolor="#ffffff"
     bordercolor="#666666"
     borderopacity="1"
     objecttolerance="10"
     gridtolerance="10"
     guidetolerance="10"
     inkscape:pageopacity="0"
     inkscape:pageshadow="2"
     inkscape:window-width="1049"
     inkscape:window-height="665"
     id="namedview1187"
     showgrid="false"
     inkscape:zoom="0.97610294"
     inkscape:cx="250.06619"
     inkscape:cy="234.8983"
     inkscape:window-x="199"
     inkscape:window-y="43"
     inkscape:window-maximized="0"
     inkscape:current-layer="Layer_1" /><rect
     x="0.7"
     y="191.7"
     fill="#3ACEC3"
     width="612"
     height="408"
     id="rect1103"
     style="fill:#041e42;fill-opacity:1" /><g
     id="g1111"
     style=""><ellipse
       id="XMLID_209_"
       cx="172.5"
       cy="282.2"
       rx="57"
       ry="14.2"
       fill="#544332"
       style="" /><g
       id="g1109"
       style=""><ellipse
         cx="174.1"
         cy="361"
         rx="62.4"
         ry="16.4"
         id="ellipse1106"
         fill="#319B89"
         style="" /><path
         id="XMLID_210_"
         d="M262.2,285.5c-3.2-3.4-8-5-14.5-5c-3,0-6.5,0.5-10,2.1c-5-17.3-31.4-21.4-55.1-21.4h-20.5    c-26.1,0-55.9,5.6-55.9,27.5v24.9c0,26.1,33.9,47.5,60.1,47.5h12.2c16.5,0,36.2-8.6,48.4-21.5c0.3-0.2,0.5-0.4,0.7-0.5    c2.8-2,6.9-4.1,11.5-6.2c12-5.9,27-13.2,27.6-26.4C267.3,297.4,266.7,290.2,262.2,285.5z M172.5,296.3c-31.5,0-57-6.3-57-14.2    s25.5-14.2,57-14.2s57,6.3,57,14.2C229.4,290,203.9,296.3,172.5,296.3z M258.6,306.1c-0.4,8.1-12.1,14-22,18.9    c1.3-3.6,2.1-7.3,2.1-11.2v-21.4c2.2-2.2,5.2-3.4,9.2-3.4c4.2,0,6.9,0.8,8.5,2.3C258.8,294,258.9,300.3,258.6,306.1z"
         fill="#FFFFFF"
         style="" /></g></g><g
     id="g1119"><ellipse
       fill="#319B89"
       cx="435.8"
       cy="529.9"
       rx="50.2"
       ry="13.2"
       id="ellipse1113" /><g
       id="g1117"><path
         id="XMLID_49_"
         fill="#FFFFFF"
         d="M443.1,423.1h-15.5c-19.7,0-42,4.2-42,20.7v49.5c0,19.7,25.5,35.8,45.2,35.8h9.2    c19.7,0,45.2-16.1,45.2-35.8v-49.5C485.1,426.9,462.8,423.1,443.1,423.1z" /><ellipse
         id="XMLID_47_"
         fill="#9BAD2D"
         cx="435.3"
         cy="438.8"
         rx="42.8"
         ry="10.7" /></g></g><g
     id="g1138"><ellipse
       fill="#319B89"
       cx="434.9"
       cy="362.3"
       rx="49.5"
       ry="13.1"
       id="ellipse1121" /><path
       fill="#FCEEE0"
       d="M468.6,298.7L468.6,298.7c-2.8-0.8-4.3-3.7-3.5-6.3l17.1-59.3c0.8-2.8,3.7-4.3,6.3-3.5l0,0   c2.8,0.8,4.3,3.7,3.5,6.3l-17.1,59.3C474.1,298,471.2,299.5,468.6,298.7z"
       id="path1123" /><path
       id="XMLID_1_"
       fill="#FFFFFF"
       d="M442.6,274.9h-15.3c-19.4,0-41.4,4.2-41.4,20.4V327c0,19.4,25.1,35.3,44.5,35.3h9.1   c19.4,0,44.5-15.9,44.5-35.3v-31.7C484,278.7,462,274.9,442.6,274.9z" /><path
       fill="#F092B0"
       d="M478.6,284.3c0,23.9-19.4,27.1-43.2,27.1c-23.9,0-43.2-3.2-43.2-27.1s19.4-43.2,43.2-43.2   C459.2,241,478.6,260.3,478.6,284.3z"
       id="path1126" /><path
       fill="#F092B0"
       d="M405.1,305.2c4-4,1.2-7.6-2.7-11.5c-4-4-7.6-6.6-11.5-2.7c-4,4-4,10.3,0,14.2   C394.8,309.2,401.3,309.2,405.1,305.2z"
       id="path1128" /><path
       fill="#F092B0"
       d="M464.7,305.2c-4-4-1.2-7.6,2.7-11.5c4-4,7.6-6.6,11.5-2.7c4,4,4,10.3,0,14.2   C475,309.2,468.7,309.2,464.7,305.2z"
       id="path1130" /><path
       fill="#F092B0"
       d="M424.8,309.2c0-5.5,4.5-6.3,10.1-6.3c5.6,0,10.1,0.7,10.1,6.3c0,5.5-4.5,10.1-10.1,10.1   C429.3,319.3,424.8,314.7,424.8,309.2z"
       id="path1132" /><path
       fill="#F092B0"
       d="M404.9,304.5c1.1-5.4,5.7-5.2,11.1-4.1c5.4,1.1,9.7,2.8,8.6,8.3c-1.1,5.4-6.4,8.9-11.9,7.8   C407.3,315.2,403.8,309.9,404.9,304.5z"
       id="path1134" /><path
       fill="#F092B0"
       d="M465.1,304.5c-1.1-5.4-5.7-5.2-11.1-4.1c-5.4,1.1-9.7,2.8-8.6,8.3c1.1,5.4,6.4,8.9,11.9,7.8   C462.8,315.2,466.2,309.9,465.1,304.5z"
       id="path1136" /></g><g
     id="g1184"><ellipse
       fill="#319B89"
       cx="171.4"
       cy="524.6"
       rx="77.4"
       ry="18.8"
       id="ellipse1140" /><path
       fill="#FFD6A8"
       d="M248.8,483.5c0,7.6-0.4,20.7-8.8,29.8c-14.3,15.4-39.7,16.6-67.5,16.6c-27,0-55.5-0.5-69.9-15.4   c-9.1-9.4-8.2-23.1-8.2-31c0-20.7,34-37.4,78-37.4S248.8,462.9,248.8,483.5z"
       id="path1142" /><path
       fill="#544332"
       d="M171.5,445.4c-34.9,0-67.5,10.6-67.5,26.9s32.7,32.3,67.5,32.3c34.9,0,68.4-15.9,68.4-32.3   S206.3,445.4,171.5,445.4z M172.6,481.9c-9.9,0-17.9-3.1-17.9-6.8s8-6.8,17.9-6.8s17.8,3.1,17.8,6.8   C190.3,478.8,182.4,481.9,172.6,481.9z"
       id="path1144" /><path
       fill="#544332"
       d="M118.2,485c4.2-4.2,1.3-8.1-2.9-12.2s-8.1-6.9-12.2-2.9c-4.2,4.1-4.2,10.9,0,15   C107.3,489.1,114,489.1,118.2,485z"
       id="path1146" /><path
       fill="#544332"
       d="M225.1,486c-4.2-4.2-1.3-8.1,2.9-12.2s8.1-6.9,12.2-2.9c4.2,4.2,4.2,10.9,0,15   C235.9,490,229.2,490,225.1,486z"
       id="path1148" /><path
       fill="#544332"
       d="M160.4,503.5c0-5.9,4.8-6.6,10.6-6.6c5.9,0,10.6,0.8,10.6,6.6c0,5.9-4.8,10.6-10.6,10.6   c-2.8,0-5.2-1-7.1-2.8C161.8,509.4,160.4,506.7,160.4,503.5z"
       id="path1150" /><path
       fill="#544332"
       d="M143.5,498.3c1.2-5.7,6-5.5,11.8-4.3c5.7,1.2,10.2,3,9,8.8c-1.2,5.7-6.8,9.4-12.6,8.2   c-2.7-0.6-4.9-2.1-6.4-4.2C143.5,504.4,142.8,501.4,143.5,498.3z"
       id="path1152" /><path
       fill="#544332"
       d="M197.8,498.3c-1.2-5.7-6-5.5-11.8-4.3c-5.7,1.2-10.2,3-9,8.8c1.2,5.7,6.8,9.4,12.6,8.2   c2.7-0.6,4.9-2.1,6.4-4.2C197.8,504.4,198.5,501.4,197.8,498.3z"
       id="path1154" /><path
       fill="#544332"
       d="M127.4,494c1.2-5.7,6-5.5,11.7-4.4c5.7,1.2,10.2,3,9.1,8.7c-1.2,5.7-6.8,9.5-12.5,8.3   C129.9,505.4,126.2,499.8,127.4,494z"
       id="path1156" /><path
       fill="#544332"
       d="M215.5,494c-1.2-5.7-6-5.5-11.7-4.4c-5.7,1.2-10.2,3-9.1,8.7c1.2,5.7,6.8,9.5,12.5,8.3   S216.8,499.8,215.5,494z"
       id="path1158" /><path
       fill="#F092B0"
       d="M207.2,467.4l-12.2-6.5c-1-0.5-1.3-1.7-0.8-2.8l0,0c0.5-1,1.7-1.3,2.8-0.8l12.2,6.5c1,0.5,1.3,1.7,0.8,2.8   l0,0C209.4,467.6,208.2,468,207.2,467.4z"
       id="path1160" /><path
       fill="#F092B0"
       d="M147.6,465l-12.2-6.5c-1-0.5-1.3-1.7-0.8-2.8l0,0c0.5-1,1.7-1.3,2.8-0.8l12.2,6.5c1,0.5,1.3,1.7,0.8,2.8   l0,0C149.8,465.2,148.6,465.5,147.6,465z"
       id="path1162" /><path
       fill="#F092B0"
       d="M181.1,498.4l-12.2-6.5c-1-0.5-1.3-1.7-0.8-2.8l0,0c0.5-1,1.7-1.3,2.8-0.8l12.2,6.5c1,0.5,1.3,1.7,0.8,2.8   l0,0C183.3,498.5,182,498.9,181.1,498.4z"
       id="path1164" /><circle
       fill="#FCEEE0"
       cx="172"
       cy="457.1"
       r="2.5"
       id="circle1166" /><circle
       fill="#FCEEE0"
       cx="145"
       cy="476.3"
       r="2.5"
       id="circle1168" /><circle
       fill="#FCEEE0"
       cx="220.9"
       cy="470.3"
       r="2.5"
       id="circle1170" /><path
       fill="#544332"
       d="M230.9,484.5c-2.4-5.3-7.1-4.1-12.4-1.6c-5.3,2.4-9.4,5.1-6.9,10.5c2.4,5.4,8.8,7.6,14.1,5.3   C231,496.2,233.4,489.9,230.9,484.5z"
       id="path1172" /><path
       fill="#544332"
       d="M112.3,484.5c2.4-5.3,7.1-4.1,12.4-1.6c5.3,2.4,9.4,5.1,6.9,10.5c-2.4,5.3-8.8,7.6-14.1,5.3   C112.2,496.2,109.9,489.9,112.3,484.5z"
       id="path1174" /><path
       fill="#F092B0"
       d="M215.3,486.7l-12.2-6.5c-1-0.5-1.3-1.7-0.8-2.8l0,0c0.5-1,1.7-1.3,2.8-0.8l12.2,6.5c1,0.5,1.3,1.7,0.8,2.8   l0,0C217.6,486.9,216.3,487.2,215.3,486.7z"
       id="path1176" /><circle
       fill="#FCEEE0"
       cx="195"
       cy="488"
       r="2.5"
       id="circle1178" /><circle
       fill="#FCEEE0"
       cx="152.1"
       cy="492.5"
       r="2.5"
       id="circle1180" /><path
       fill="#F092B0"
       d="M127.4,484l-12.2-6.5c-1-0.5-1.3-1.7-0.8-2.8l0,0c0.5-1,1.7-1.3,2.8-0.8l12.2,6.5c1,0.5,1.3,1.7,0.8,2.8   l0,0C129.6,484.1,128.4,484.5,127.4,484z"
       id="path1182" /></g></svg>