<?xml version="1.0" encoding="UTF-8" standalone="no"?>
<svg
   xmlns:dc="http://purl.org/dc/elements/1.1/"
   xmlns:cc="http://creativecommons.org/ns#"
   xmlns:rdf="http://www.w3.org/1999/02/22-rdf-syntax-ns#"
   xmlns:svg="http://www.w3.org/2000/svg"
   xmlns="http://www.w3.org/2000/svg"
   xmlns:sodipodi="http://sodipodi.sourceforge.net/DTD/sodipodi-0.dtd"
   xmlns:inkscape="http://www.inkscape.org/namespaces/inkscape"
   version="1.1"
   id="Layer_1"
   x="0px"
   y="0px"
   viewBox="0 0 187.93567 187.70495"
   xml:space="preserve"
   sodipodi:docname="city-logo.svg"
   inkscape:version="0.92.2 5c3e80d, 2017-08-06"
   width="187.93567"
   height="187.70496"><metadata
     id="metadata909"><rdf:RDF><cc:Work
         rdf:about=""><dc:format>image/svg+xml</dc:format><dc:type
           rdf:resource="http://purl.org/dc/dcmitype/StillImage" /></cc:Work></rdf:RDF></metadata><defs
     id="defs907" /><sodipodi:namedview
     pagecolor="#ffffff"
     bordercolor="#666666"
     borderopacity="1"
     objecttolerance="10"
     gridtolerance="10"
     guidetolerance="10"
     inkscape:pageopacity="0"
     inkscape:pageshadow="2"
     inkscape:window-width="1127"
     inkscape:window-height="673"
     id="namedview905"
     showgrid="false"
     inkscape:zoom="1.8227641"
     inkscape:cx="103.90212"
     inkscape:cy="106.2995"
     inkscape:window-x="340"
     inkscape:window-y="55"
     inkscape:window-maximized="0"
     inkscape:current-layer="Layer_1" /><style
     type="text/css"
     id="style888">
	.st0{fill:#122A68;}
	.st1{fill:#125B84;}
	.st2{fill:#FFFFFF;}
</style><g
     id="g892"
     style="fill:#041e42;fill-opacity:1;stroke:#a2aaad;stroke-width:8;stroke-miterlimit:4;stroke-dasharray:none;stroke-opacity:1"
     transform="translate(3.8996782,4.0012546)"><path
       class="st0"
       d="m 26.4,153.4 c -35.1,-35.1 -35.1,-92 0,-127.1 35.1,-35.1 92.1,-35.1 127.3,0 35.2,35.1 35.1,92 0,127.1 -35.1,35.1 -92.2,35.1 -127.3,0 z"
       id="path890"
       style="fill:#041e42;fill-opacity:1;stroke:#a2aaad;stroke-width:8;stroke-miterlimit:4;stroke-dasharray:none;stroke-opacity:1"
       inkscape:connector-curvature="0" /></g><g
     id="g898"
     style="fill:#a6192e;fill-opacity:1;stroke:none;stroke-opacity:1"
     transform="matrix(1,0,0,0.99428534,4.5129976,0.51074637)"><rect
       x="73.099998"
       y="61.299999"
       class="st1"
       width="32.400002"
       height="9.5"
       id="rect894"
       style="fill:#a6192e;fill-opacity:1;stroke:none;stroke-opacity:1" /><path
       class="st1"
       d="m 152.5,153.9 c -3,3 -6.2,5.7 -9.5,8.2 v -61.6 h -13.1 v 69.7 c -3.1,1.6 -6.3,2.9 -9.5,4.1 v -94 H 58.2 v 94 c -3.2,-1.2 -6.4,-2.6 -9.5,-4.1 V 100.5 H 36.3 v 62 c 35.2,25.9 85.1,23 117,-8.8"
       id="path896"
       style="fill:#a6192e;fill-opacity:1;stroke:none;stroke-opacity:1"
       inkscape:connector-curvature="0" /></g><g
     id="g902"
     style="fill:#ffffff;fill-opacity:1;stroke:none"
     transform="translate(4.6815748,0.17269758)"><path
       class="st2"
       d="m 152.6,95.7 c 0,-2.6 -2.1,-4.8 -4.8,-4.8 H 129.9 V 75.5 c 0,-2.6 -2.1,-4.8 -4.8,-4.8 H 115 V 56.5 c 0,-2.6 -2.1,-4.8 -4.8,-4.8 H 94.1 v -30 c 0,-2.6 -2.1,-4.8 -4.8,-4.8 -2.7,0 -4.8,2.1 -4.8,4.8 v 30 H 68.4 c -2.6,0 -4.8,2.1 -4.8,4.8 V 70.8 H 53.5 c -2.6,0 -4.8,2.1 -4.8,4.8 V 91 H 31.6 c -2.6,0 -4.8,2.1 -4.8,4.8 v 58.8 c 3,2.9 6.2,5.6 9.5,8 0,0 0,0 0,-0.1 v -62 h 12.4 v 69.7 c 3.1,1.6 6.3,2.9 9.5,4.1 v -94 h 62.1 v 94 c 3.2,-1.2 6.4,-2.6 9.5,-4.1 V 100.5 H 143 v 61.6 c 3.3,-2.5 6.5,-5.2 9.5,-8.2 V 95.7 Z M 105.5,70.8 H 73.1 v -9.5 h 32.4 z"
       id="path900"
       style="fill:#ffffff;fill-opacity:1;stroke:none"
       inkscape:connector-curvature="0" /></g></svg>